HIERARCHY
ROOT Hips
{
	OFFSET 0.000000 0.000000 0.000000
	CHANNELS 6 Xposition Yposition Zposition Zrotation Yrotation Xrotation 
	JOINT LHipJoint
	{
		OFFSET 0.000000 0.000000 0.000000
		CHANNELS 3 Zrotation Yrotation Xrotation
		JOINT LeftUpLeg
		{
			OFFSET 1.363060 -1.794630 0.839290
			CHANNELS 3 Zrotation Yrotation Xrotation
			JOINT LeftLeg
			{
				OFFSET 2.448110 -6.726130 0.000000
				CHANNELS 3 Zrotation Yrotation Xrotation
				JOINT LeftFoot
				{
					OFFSET 2.562200 -7.039590 0.000000
					CHANNELS 3 Zrotation Yrotation Xrotation
					JOINT LeftToeBase
					{
						OFFSET 0.157640 -0.433110 2.322550
						CHANNELS 3 Zrotation Yrotation Xrotation
						End Site
						{
							OFFSET 0.000000 0.000000 0.000000
						}
					}
				}
			}
		}
	}
	JOINT RHipJoint
	{
		OFFSET 0.000000 0.000000 0.000000
		CHANNELS 3 Zrotation Yrotation Xrotation
		JOINT RightUpLeg
		{
			OFFSET -1.305520 -1.794630 0.839290
			CHANNELS 3 Zrotation Yrotation Xrotation
			JOINT RightLeg
			{
				OFFSET -2.542530 -6.985550 0.000000
				CHANNELS 3 Zrotation Yrotation Xrotation
				JOINT RightFoot
				{
					OFFSET -2.568260 -7.056230 0.000000
					CHANNELS 3 Zrotation Yrotation Xrotation
					JOINT RightToeBase
					{
						OFFSET -0.164730 -0.452590 2.363150
						CHANNELS 3 Zrotation Yrotation Xrotation
						End Site
						{
							OFFSET 0.000000 0.000000 0.000000
						}
					}
				}
			}
		}
	}
	JOINT LowerBack
	{
		OFFSET 0.000000 0.000000 0.000000
		CHANNELS 3 Zrotation Yrotation Xrotation
		JOINT Spine
		{
			OFFSET 0.028270 2.035590 -0.193380
			CHANNELS 3 Zrotation Yrotation Xrotation
			JOINT Spine1
			{
				OFFSET 0.056720 2.048850 -0.042750
				CHANNELS 3 Zrotation Yrotation Xrotation
				JOINT Neck
				{
					OFFSET 0.000000 0.000000 0.000000
					CHANNELS 3 Zrotation Yrotation Xrotation
					JOINT Neck1
					{
						OFFSET -0.054170 1.746240 0.172020
						CHANNELS 3 Zrotation Yrotation Xrotation
						JOINT Head
						{
							OFFSET 0.104070 1.761360 -0.123970
							CHANNELS 3 Zrotation Yrotation Xrotation
							End Site
							{
								OFFSET 0.000000 0.000000 0.000000
							}
						}
					}
				}
				JOINT LeftShoulder
				{
					OFFSET 0.000000 0.000000 0.000000
					CHANNELS 3 Zrotation Yrotation Xrotation
					JOINT LeftArm
					{
						OFFSET 3.362410 1.200890 -0.311210
						CHANNELS 3 Zrotation Yrotation Xrotation
						JOINT LeftForeArm
						{
							OFFSET 4.983000 -0.000000 -0.000000
							CHANNELS 3 Zrotation Yrotation Xrotation
							JOINT LeftHand
							{
								OFFSET 3.483560 -0.000000 -0.000000
								CHANNELS 3 Zrotation Yrotation Xrotation
								JOINT LeftFingerBase
								{
									OFFSET 0.000000 0.000000 0.000000
									CHANNELS 3 Zrotation Yrotation Xrotation
									JOINT LeftHandIndex1
									{
										OFFSET 0.715260 -0.000000 -0.000000
										CHANNELS 3 Zrotation Yrotation Xrotation
										End Site
										{
											OFFSET 0.000000 0.000000 0.000000
										}
									}
								}
								JOINT LThumb
								{
									OFFSET 0.000000 0.000000 0.000000
									CHANNELS 3 Zrotation Yrotation Xrotation
									End Site
									{
										OFFSET 0.000000 0.000000 0.000000
									}
								}
							}
						}
					}
				}
				JOINT RightShoulder
				{
					OFFSET 0.000000 0.000000 0.000000
					CHANNELS 3 Zrotation Yrotation Xrotation
					JOINT RightArm
					{
						OFFSET -3.136600 1.374050 -0.404650
						CHANNELS 3 Zrotation Yrotation Xrotation
						JOINT RightForeArm
						{
							OFFSET -5.241900 -0.000000 -0.000000
							CHANNELS 3 Zrotation Yrotation Xrotation
							JOINT RightHand
							{
								OFFSET -3.444170 -0.000000 -0.000000
								CHANNELS 3 Zrotation Yrotation Xrotation
								JOINT RightFingerBase
								{
									OFFSET 0.000000 0.000000 0.000000
									CHANNELS 3 Zrotation Yrotation Xrotation
									JOINT RightHandIndex1
									{
										OFFSET -0.622530 -0.000000 -0.000000
										CHANNELS 3 Zrotation Yrotation Xrotation
										End Site
										{
											OFFSET 0.000000 0.000000 0.000000
										}
									}
								}
								JOINT RThumb
								{
									OFFSET 0.000000 0.000000 0.000000
									CHANNELS 3 Zrotation Yrotation Xrotation
									End Site
									{
										OFFSET 0.000000 0.000000 0.000000
									}
								}
							}
						}
					}
				}
			}
		}
	}
}
MOTION
Frames: 4
Frame Time: 0.008333
7.601457 22.601613 1.052335 22.096062 -65.918671 8.389301 -7.114806 0.397367 1.468838 -27.264273 -3.230945 -109.300251 3.420840 9.426804 91.462038 3.387558 16.312635 -7.653312 0.863300 -0.000000 -40.444000 13.704999 -0.440307 -5.218611 -26.469862 -19.819377 -25.407982 -13.163231 -10.445941 127.534086 -1.627495 -7.778876 -20.166231 1.280400 0.000000 -67.313800 -3.625128 -1.762146 3.020776 -0.694757 -1.551557 -1.892320 -1.179811 -1.619612 0.856558 3.536822 -11.570826 0.646845 -0.425083 -0.158422 2.071358 0.000000 0.000000 0.000000 16.731351 8.286197 -5.508638 -39.055425 -48.078337 -45.727574 177.699198 -56.980488 179.899958 6.371271 -2.861165 -0.205336 0.076208 0.860769 -0.000000 0.000000 0.000000 0.000000 0.000000 0.000000 0.000000 -10.553336 -14.124601 -0.855943 14.641857 11.962546 -62.745696 -179.180260 60.934104 179.801493 -21.256007 2.392463 -0.575663 0.500805 -0.608091 -0.000000 0.000000 0.000000 0.000000 0.000000 0.000000 0.000000 
7.509516 22.618130 1.065530 21.568445 -65.965972 9.923085 -6.958782 0.586971 1.692068 -27.975148 -5.322540 -114.737634 3.938934 9.983949 93.794767 3.533534 16.846204 -8.130726 0.789300 -0.000000 -39.655600 13.516614 -0.552030 -5.076273 -28.812898 -18.731101 -24.830734 -14.751908 -10.873985 130.844254 -1.532763 -6.877222 -21.700895 1.295500 -0.000000 -66.913400 -3.096682 -1.723088 2.617024 -0.540416 -1.538503 -1.895005 -1.066765 -1.621816 1.276082 3.246621 -12.371821 0.127295 -0.348510 -0.144650 1.923292 0.000000 0.000000 0.000000 16.733532 9.116849 -5.440369 -38.970575 -47.082415 -45.692537 177.766500 -56.473998 179.899997 6.452513 -2.770476 -0.202936 0.065870 0.853298 -0.000000 0.000000 0.000000 0.000000 0.000000 0.000000 0.000000 -11.126341 -14.914566 -0.676344 13.941220 10.131398 -64.113047 -179.216247 59.730256 179.803210 -21.268992 1.888662 -0.476596 0.519411 -0.592168 -0.000000 0.000000 0.000000 0.000000 0.000000 0.000000 0.000000 
7.411795 22.626500 1.084347 20.820438 -66.088588 11.602990 -6.853848 0.840135 1.885544 -28.430067 -7.390858 -119.947210 4.451522 10.531478 95.889511 3.634305 17.219779 -8.335644 0.778600 -0.000000 -39.394300 13.275449 -0.731336 -4.894766 -30.958954 -17.502479 -24.131710 -16.156051 -11.226663 133.443673 -1.391373 -5.747605 -22.979553 1.211500 -0.000000 -66.418100 -2.461011 -1.671273 2.200688 -0.359946 -1.518183 -1.900035 -0.963394 -1.616886 1.691017 2.909339 -13.175059 -0.408019 -0.279156 -0.130896 1.771063 0.000000 0.000000 0.000000 16.677319 9.903049 -5.341217 -38.853494 -45.910231 -45.641952 177.856068 -55.830430 179.900646 6.479587 -2.729419 -0.201532 0.055191 0.847195 -0.000000 0.000000 0.000000 0.000000 0.000000 0.000000 0.000000 -11.683926 -15.688892 -0.503064 13.249154 8.396363 -65.361127 -179.244381 58.713554 179.804716 -21.286795 1.413212 -0.382743 0.535728 -0.576369 -0.000000 0.000000 0.000000 0.000000 0.000000 0.000000 0.000000 
7.308683 22.628457 1.106855 19.855363 -66.273981 13.381905 -6.802000 1.143713 2.043476 -28.632596 -9.351643 -124.848393 4.948312 11.056311 97.731644 3.687200 17.445120 -8.214376 0.855201 -0.000000 -39.780400 12.999376 -0.947652 -4.718059 -32.797332 -16.299469 -23.414815 -17.293138 -11.508876 135.352314 -1.222009 -4.526461 -24.058433 1.058600 0.000000 -65.819900 -1.742624 -1.622881 1.818777 -0.160018 -1.505801 -1.899460 -0.875400 -1.619213 2.089108 2.551890 -13.912892 -0.942929 -0.218242 -0.117485 1.618551 0.000000 0.000000 0.000000 16.562930 10.663511 -5.207327 -38.699778 -44.582154 -45.591462 177.970359 -55.073814 179.901467 6.479747 -2.760456 -0.203518 0.043156 0.843299 -0.000000 0.000000 0.000000 0.000000 0.000000 0.000000 0.000000 -12.202385 -16.389508 -0.347440 12.584489 6.778353 -66.457153 -179.260133 57.866102 179.806084 -21.307247 0.953454 -0.291703 0.549253 -0.560438 -0.000000 0.000000 0.000000 0.000000 0.000000 0.000000 0.000000 
